<?xml version="1.0" standalone="no"?>
<!DOCTYPE svg PUBLIC "-//W3C//DTD SVG 20010904//EN"
 "http://www.w3.org/TR/2001/REC-SVG-20010904/DTD/svg10.dtd">
<svg version="1.0" xmlns="http://www.w3.org/2000/svg"
 width="800.000000pt" height="934.000000pt" viewBox="0 0 800.000000 934.000000"
 preserveAspectRatio="xMidYMid meet">

<g transform="translate(0.000000,934.000000) scale(0.100000,-0.100000)"
fill="#000000" stroke="none">
<path d="M4467 9314 c-93 -29 -228 -194 -376 -461 -35 -62 -64 -113 -67 -113
-2 0 -32 15 -66 34 -35 19 -92 42 -128 51 -90 24 -265 15 -425 -20 -66 -15
-178 -35 -249 -46 -158 -23 -289 -58 -418 -111 -141 -57 -316 -156 -325 -184
-5 -16 133 -81 212 -100 196 -46 356 31 567 273 49 57 93 103 98 103 4 0 93
12 196 26 269 37 376 25 465 -55 49 -43 49 -56 0 -133 -62 -98 -219 -196 -416
-260 -77 -25 -194 -66 -260 -92 -120 -47 -368 -170 -415 -206 -25 -19 -25 -19
-5 -34 11 -8 51 -31 90 -51 38 -20 74 -40 80 -45 21 -17 136 -40 204 -40 82 0
209 26 231 47 8 7 44 32 79 55 100 66 213 210 300 385 22 43 61 103 88 133 27
30 64 77 82 104 l33 48 55 -53 c127 -125 243 -300 395 -596 92 -179 98 -196
98 -251 0 -40 -4 -62 -13 -65 -7 -2 -40 0 -72 6 -81 14 -303 -6 -420 -37 -97
-26 -216 -71 -295 -111 -46 -23 -53 -24 -102 -13 -90 21 -365 15 -484 -10
-159 -34 -325 -96 -504 -190 -190 -98 -235 -127 -309 -197 -207 -194 -305
-459 -272 -734 9 -73 21 -122 38 -156 28 -55 147 -269 199 -355 18 -30 30 -58
26 -62 -4 -4 -95 -12 -202 -18 -286 -16 -440 -35 -591 -74 -280 -72 -484 -161
-659 -285 -115 -82 -157 -128 -320 -339 -400 -523 -540 -836 -540 -1213 0
-137 15 -231 74 -463 68 -265 147 -467 236 -606 70 -108 279 -240 502 -314
144 -48 176 -52 240 -31 74 24 133 68 183 136 77 104 98 160 103 274 4 93 2
108 -26 189 -33 95 -101 215 -169 298 -30 37 -44 65 -49 98 -15 95 24 362 79
539 21 69 103 143 232 209 90 47 380 158 470 180 227 57 506 60 691 6 l51 -14
33 -88 c18 -48 51 -124 73 -170 37 -75 40 -86 27 -105 -43 -70 -63 -125 -68
-188 -6 -87 3 -131 34 -169 20 -23 27 -45 31 -93 3 -34 11 -73 18 -87 l13 -24
18 39 18 40 6 -80 c8 -88 31 -171 59 -207 10 -13 37 -54 61 -93 23 -38 57 -86
76 -105 31 -32 34 -43 44 -129 20 -176 75 -357 140 -461 l28 -45 -33 -120
c-18 -66 -40 -167 -50 -225 -9 -58 -19 -112 -22 -120 -3 -8 -7 -33 -9 -55 -55
-574 -81 -678 -268 -1068 -69 -143 -76 -170 -52 -202 30 -41 156 -6 280 78
107 71 339 253 401 314 121 117 307 358 435 561 74 119 78 118 79 -18 2 -207
43 -658 76 -830 7 -41 23 -129 35 -196 32 -191 90 -368 154 -478 43 -73 86
-55 100 43 6 37 81 204 106 236 4 6 22 37 40 70 169 316 751 1048 774 973 2
-7 16 -61 30 -120 41 -169 123 -410 175 -511 65 -128 134 -228 267 -387 116
-138 179 -197 224 -206 14 -3 33 -9 42 -15 29 -15 38 -11 54 26 38 91 65 243
79 450 20 279 35 363 100 562 121 365 292 678 524 958 351 425 622 718 771
836 45 35 90 78 101 95 24 40 25 116 0 170 -32 71 -147 150 -299 204 l-63 23
-34 74 c-43 93 -97 162 -148 189 l-40 21 -2 111 c-1 62 1 112 5 112 4 0 24 -7
43 -15 54 -22 110 -19 133 6 16 19 17 23 4 27 -26 9 -70 60 -70 81 0 11 7 49
15 85 23 99 14 351 -15 428 -18 48 -19 63 -10 97 8 29 7 52 -1 86 -11 42 -10
50 11 87 40 71 15 185 -59 270 -15 18 -36 57 -46 86 -12 38 -33 69 -73 110
-54 54 -99 136 -82 147 5 3 11 1 15 -5 12 -20 25 -9 25 20 0 66 -65 147 -164
205 -25 15 -46 30 -46 34 0 4 11 13 25 19 42 19 89 134 48 117 -79 -33 -135
-24 -193 29 -25 22 -64 56 -85 74 l-40 33 53 -6 c41 -5 52 -3 52 9 0 22 -48
75 -94 103 -55 34 -186 134 -186 142 0 3 20 17 45 30 25 13 45 27 45 31 0 10
-26 20 -51 20 -66 0 -220 88 -286 164 -43 48 -69 166 -37 166 35 0 -27 125
-106 212 -34 37 -56 69 -50 73 5 3 13 4 18 2 4 -3 16 -1 27 3 18 6 11 16 -55
82 -80 80 -148 119 -252 148 l-60 16 49 32 c44 28 82 77 69 89 -2 3 -76 6
-163 8 -87 2 -203 10 -257 19 -99 16 -100 17 -193 88 -51 39 -93 75 -93 80 0
5 9 28 21 51 11 23 22 49 24 57 2 8 17 49 33 90 43 109 89 260 113 375 11 55
26 103 32 108 89 60 193 99 312 118 84 13 370 13 575 1 l115 -7 3 -41 c2 -23
-8 -79 -23 -130 -14 -49 -33 -136 -42 -194 -36 -243 37 -435 195 -511 64 -31
160 -31 219 -1 23 12 49 22 58 22 24 0 17 23 -16 49 -40 32 -150 200 -184 280
-41 98 -88 264 -120 419 -26 126 -37 116 124 108 158 -7 273 -32 341 -74 56
-35 58 -49 35 -260 -25 -228 -6 -310 96 -411 86 -85 227 -130 407 -131 39 0
72 3 72 6 0 3 -25 34 -56 67 -89 99 -196 251 -335 479 -72 117 -145 228 -162
246 -75 78 -217 122 -445 138 -56 4 -99 12 -107 20 -7 7 -18 53 -25 101 -6 48
-16 118 -21 155 -16 119 -43 175 -124 253 -111 109 -231 165 -356 165 -109 0
-194 -36 -381 -161 -65 -44 -124 -79 -132 -79 -8 0 -16 14 -20 33 -17 89 -111
222 -209 296 -72 55 -298 165 -378 185 -79 19 -148 20 -212 0z m155 -45 c141
-30 393 -164 488 -259 68 -67 87 -105 101 -205 l10 -78 -64 -66 c-152 -157
-231 -251 -319 -381 -65 -96 -170 -295 -203 -383 -10 -26 -22 -46 -27 -45 -5
2 -31 51 -57 108 -110 238 -231 434 -381 614 -49 60 -90 111 -90 113 0 2 33
66 73 141 80 149 143 251 218 353 48 66 49 66 144 94 21 7 56 5 107 -6z m1354
-333 c108 -54 215 -159 239 -236 21 -69 35 -317 19 -331 -7 -6 -104 -7 -240
-3 -328 9 -536 -16 -665 -82 -26 -13 -50 -20 -53 -15 -4 5 -2 51 4 103 5 51
10 141 10 200 l0 107 93 76 c107 88 174 135 272 188 68 37 72 38 157 34 76 -3
95 -8 164 -41z m-2849 -262 c11 -30 -195 -204 -303 -255 -91 -43 -114 -45
-186 -16 -35 14 -82 31 -105 38 -24 7 -43 13 -43 15 0 12 14 34 22 34 6 0 50
20 100 45 123 63 226 99 383 135 102 23 124 24 132 4z m2089 -226 c-10 -236
-9 -232 -100 -318 -136 -129 -292 -370 -311 -478 -8 -49 -20 -52 -99 -24 -48
17 -50 18 -62 70 -10 47 -9 60 7 103 64 169 169 352 291 511 77 99 254 288
271 288 7 0 8 -53 3 -152z m-1446 -122 c0 -8 -4 -18 -10 -21 -5 -3 -10 -20
-10 -36 0 -90 -225 -282 -403 -344 -79 -28 -180 -20 -311 24 -65 22 -120 42
-123 45 -8 8 17 36 31 36 6 0 40 14 76 31 197 93 256 119 274 119 8 0 18 5 21
10 3 6 15 10 26 10 11 0 74 18 142 40 122 41 151 52 217 83 44 20 70 21 70 3z
m1380 -353 c-27 -125 -86 -328 -110 -373 -9 -19 -23 -48 -29 -63 l-11 -28 -81
43 c-45 24 -84 49 -86 56 -9 23 39 131 98 220 64 96 228 274 236 255 2 -7 -5
-56 -17 -110z m1770 105 c0 -6 6 -19 14 -27 7 -9 31 -50 53 -91 94 -177 194
-325 287 -428 36 -40 66 -75 66 -77 0 -8 -93 6 -145 22 -176 54 -252 133 -291
302 -14 60 -19 250 -7 294 5 19 23 24 23 5z m-609 -74 c8 -32 25 -82 46 -131
7 -17 13 -34 13 -37 0 -15 66 -147 97 -194 19 -29 67 -84 105 -123 39 -38 67
-73 64 -77 -4 -4 -43 -9 -86 -11 -92 -4 -124 10 -181 80 -19 23 -41 49 -49 58
-8 9 -24 43 -35 76 -17 50 -20 84 -19 203 1 78 5 154 8 168 9 32 28 26 37 -12z
m-1660 -427 c220 -57 386 -149 549 -304 159 -152 249 -294 304 -482 105 -350
59 -678 -134 -963 -52 -78 -166 -205 -175 -196 -3 3 7 31 21 64 43 96 73 211
90 344 15 109 15 145 5 279 -26 318 -105 497 -315 706 -181 181 -364 287 -593
344 -110 27 -160 33 -292 32 -201 0 -342 -31 -501 -111 l-65 -32 35 37 c128
134 321 241 518 284 126 28 141 29 307 26 120 -3 169 -8 246 -28z m-1028 -123
c21 -3 37 -9 35 -13 -8 -17 -180 -171 -192 -171 -7 0 -39 9 -71 20 -83 29
-213 51 -340 59 l-110 7 84 27 c225 74 420 97 594 71z m712 -118 c182 -44 245
-68 385 -152 142 -85 254 -183 337 -296 90 -122 95 -130 128 -218 15 -41 31
-84 36 -95 5 -11 16 -58 25 -105 9 -47 22 -100 30 -117 22 -54 -2 -360 -36
-463 -11 -30 -29 -89 -41 -130 -12 -41 -25 -77 -28 -80 -3 -3 -18 -27 -33 -55
-14 -27 -37 -57 -50 -65 -23 -14 -66 -51 -114 -96 -12 -12 -35 -24 -51 -27
-71 -14 -89 -19 -110 -29 -30 -15 -36 -7 -27 37 4 25 23 53 58 89 52 54 96
118 96 139 0 7 7 22 15 33 54 78 89 268 81 442 -6 141 -9 157 -41 257 -43 133
-139 296 -212 360 -13 11 -23 26 -23 33 0 7 -4 12 -10 12 -5 0 -31 22 -57 48
-49 49 -167 132 -188 132 -6 0 -16 5 -22 11 -7 7 -36 20 -65 30 -177 63 -453
87 -613 54 -121 -25 -380 -162 -476 -252 -43 -40 -48 -42 -63 -28 -21 21 -20
62 2 106 20 40 128 181 184 241 44 47 262 162 329 174 24 4 51 9 59 10 134 26
383 26 495 0z m-1126 -37 c77 -12 194 -54 211 -74 10 -12 0 -31 -54 -101 -36
-48 -66 -91 -66 -95 0 -6 -62 -7 -147 -3 -133 6 -156 4 -228 -16 -44 -12 -93
-25 -110 -30 -59 -16 -130 -44 -155 -60 -14 -9 -43 -29 -65 -43 -62 -41 -148
-134 -193 -209 -27 -44 -77 -196 -93 -281 -6 -34 -11 -110 -12 -169 0 -60 -3
-108 -8 -108 -12 0 -77 111 -107 182 -23 55 -26 76 -25 168 1 96 6 126 50 310
3 14 14 36 24 49 11 13 19 28 19 33 0 22 90 139 159 208 78 78 159 127 296
184 135 55 357 79 504 55z m2431 -61 c0 -16 -46 -38 -76 -38 -12 0 -32 -8 -44
-18 -22 -18 -22 -18 66 -45 171 -53 278 -130 204 -147 -41 -10 -34 -33 17 -58
27 -13 64 -31 83 -41 37 -20 130 -113 130 -131 0 -16 -19 -12 -37 10 -17 20
-43 27 -43 13 0 -5 16 -28 35 -52 19 -24 35 -48 35 -53 0 -5 9 -21 19 -36 20
-28 39 -112 25 -112 -4 0 -16 7 -26 17 -30 27 -31 9 -4 -59 15 -34 34 -100 43
-145 9 -46 19 -83 23 -83 10 0 17 53 16 118 -1 28 1 52 4 52 4 0 22 -14 41
-31 60 -55 93 -76 147 -95 28 -10 52 -21 52 -26 0 -4 -17 -10 -37 -14 -81 -14
-91 -37 -23 -49 48 -8 63 -25 23 -26 -15 0 -37 -4 -48 -9 -18 -7 -18 -9 10
-20 17 -6 50 -16 75 -22 25 -5 59 -16 75 -23 114 -49 165 -75 165 -84 0 -7
-24 -11 -59 -11 -62 0 -111 -13 -111 -29 0 -5 31 -21 70 -36 68 -26 120 -58
120 -75 0 -5 -12 -10 -27 -12 l-28 -4 25 -12 c14 -7 41 -22 60 -33 20 -12 61
-24 100 -28 48 -4 65 -10 65 -21 0 -14 -18 -20 -103 -36 l-24 -5 26 -20 c14
-11 40 -25 58 -31 56 -18 188 -120 188 -144 0 -12 -7 -11 -37 5 -21 10 -57 22
-80 26 -55 9 -58 -12 -7 -52 72 -56 109 -92 101 -99 -4 -4 -19 -2 -33 5 -57
25 -33 -15 33 -56 87 -55 117 -93 73 -93 -36 0 -21 -28 63 -113 88 -87 137
-169 137 -226 0 -68 -21 -76 -94 -35 -25 14 -46 21 -46 16 0 -19 35 -72 50
-77 16 -5 70 -95 70 -116 0 -7 -26 12 -58 44 -54 54 -82 70 -82 47 0 -6 23
-45 52 -88 28 -42 60 -90 71 -105 10 -15 17 -39 15 -53 l-3 -26 -27 21 c-14
12 -29 21 -32 21 -14 0 -3 -40 28 -100 52 -102 84 -250 53 -250 -11 0 -65 106
-60 120 3 12 -19 40 -32 40 -17 0 -19 -22 -6 -48 6 -9 14 -55 20 -102 11 -94
54 -195 97 -229 49 -38 13 -56 -51 -25 -42 19 -119 90 -136 124 -22 44 -21 3
1 -47 12 -26 24 -61 27 -78 3 -16 9 -38 14 -47 11 -21 12 -138 1 -138 -13 0
-32 23 -32 40 0 21 -55 151 -65 153 -10 3 -15 -65 -6 -78 5 -5 14 -38 21 -72
17 -84 0 -177 -40 -222 -16 -17 -36 -31 -44 -31 -24 0 -43 39 -51 103 -4 39
-11 57 -21 57 -9 0 -14 -11 -14 -32 -1 -70 -11 -144 -21 -170 -19 -46 -36 -34
-41 27 -9 102 -32 84 -42 -32 -3 -41 -9 -80 -13 -86 -4 -7 -9 -21 -10 -32 -6
-37 -64 -145 -79 -145 -8 0 -18 10 -23 23 -20 54 -31 95 -31 123 0 34 -15 62
-27 50 -4 -4 -8 -42 -9 -84 0 -43 -4 -86 -9 -97 -15 -33 -96 -145 -105 -145
-5 0 -10 17 -12 37 -3 42 -23 55 -33 21 -4 -13 -13 -30 -19 -38 -7 -8 -18 -32
-25 -53 -14 -41 -86 -174 -105 -193 -7 -6 -34 -39 -61 -73 -50 -61 -65 -72
-65 -48 0 16 24 85 33 93 8 9 9 44 1 44 -17 0 -85 -100 -113 -167 -7 -18 -28
-44 -47 -58 -19 -14 -34 -33 -34 -41 0 -20 -46 -61 -89 -80 -47 -21 -54 -4
-25 60 33 73 41 116 21 116 -9 0 -22 -6 -29 -14 -8 -7 -25 -17 -38 -21 -14 -4
-39 -18 -56 -30 -16 -13 -52 -33 -80 -46 -27 -12 -68 -39 -91 -60 -22 -21 -90
-62 -150 -91 -101 -51 -176 -92 -261 -146 -21 -13 -45 -25 -54 -29 -10 -3 -18
-9 -18 -14 0 -5 -11 -14 -25 -19 -14 -5 -25 -13 -25 -18 0 -5 -27 -37 -60 -72
-33 -35 -60 -71 -60 -81 0 -10 -5 -21 -10 -24 -13 -8 -50 -84 -50 -102 0 -7
-4 -13 -8 -13 -12 0 -32 -47 -32 -75 0 -14 -11 -48 -24 -77 -13 -29 -27 -64
-29 -78 -6 -26 -30 -117 -48 -180 -10 -33 -28 -115 -50 -220 -6 -25 -12 -71
-16 -103 -3 -31 -9 -60 -14 -63 -5 -3 -9 -18 -9 -35 0 -21 -5 -29 -18 -29 -18
0 -35 44 -48 125 -3 22 -12 58 -21 80 -22 58 -63 247 -56 258 3 5 0 12 -6 16
-6 4 -13 18 -16 31 -2 12 -9 38 -16 57 -6 19 -12 44 -14 56 -5 29 -23 100 -40
157 -8 25 -17 65 -20 90 -4 25 -14 55 -22 68 -15 24 -12 52 6 52 16 0 74 -42
144 -104 61 -53 89 -67 101 -47 3 4 -19 33 -49 63 -30 31 -55 58 -55 61 0 3
-36 41 -80 86 -64 65 -96 88 -169 123 -49 24 -90 46 -90 49 -1 3 34 27 77 52
121 73 313 229 299 243 -3 4 -32 -10 -64 -29 -318 -192 -546 -291 -741 -323
-87 -14 -100 -14 -146 1 -27 9 -69 32 -92 52 -63 51 -158 208 -190 312 -22 73
-63 303 -75 425 -14 143 -13 471 2 608 l11 106 100 7 c54 4 101 5 104 2 3 -2
-6 -45 -20 -93 -43 -155 -58 -254 -63 -419 -8 -257 31 -476 102 -569 77 -101
148 -127 292 -108 194 26 365 133 640 397 178 172 440 516 560 735 41 75 107
244 187 477 27 79 63 157 104 225 34 57 62 108 62 112 0 17 54 76 69 76 54 0
161 -180 198 -332 22 -95 43 -105 43 -20 0 82 -24 180 -59 251 -17 33 -28 61
-23 61 4 0 24 -11 45 -25 93 -64 238 -123 237 -97 0 4 -33 42 -73 85 -40 42
-71 77 -70 77 2 0 40 -21 84 -46 44 -26 82 -44 85 -41 9 9 -66 136 -101 170
-98 96 -222 151 -369 163 -90 7 -398 -68 -404 -99 -3 -15 6 -17 64 -17 67 0
239 -35 249 -50 13 -21 -354 -292 -554 -408 -275 -159 -648 -302 -942 -361
-57 -11 -157 -28 -223 -36 -65 -8 -122 -17 -126 -20 -4 -3 -62 -5 -127 -6
-132 -1 -202 17 -274 67 -49 34 -112 118 -157 208 -19 39 -46 92 -59 119 -27
55 -14 63 35 22 16 -14 40 -24 53 -23 13 1 34 -2 47 -6 48 -16 21 18 -65 79
-128 92 -194 120 -408 174 -317 80 -565 98 -729 53 -174 -48 -391 -158 -468
-237 -65 -66 -159 -242 -204 -379 -12 -39 -29 -89 -38 -111 -30 -79 -16 -227
35 -354 29 -70 102 -196 164 -281 121 -164 150 -311 93 -485 -37 -113 -72
-161 -143 -197 -80 -41 -231 -11 -435 88 -230 111 -283 164 -361 359 -17 44
-40 100 -51 124 -33 72 -112 387 -133 531 -17 112 -20 401 -4 486 22 126 82
290 145 398 59 102 220 345 295 446 14 19 70 95 124 168 118 160 175 213 303
280 277 145 526 225 842 273 120 18 192 22 415 23 257 1 273 0 340 -22 39 -13
79 -27 90 -32 11 -5 44 -19 73 -31 28 -12 52 -28 52 -35 0 -8 9 -14 20 -14 11
0 64 -20 117 -44 175 -77 317 -116 434 -116 61 0 73 -4 135 -42 105 -63 243
-127 299 -137 28 -5 94 -14 147 -20 176 -20 418 15 569 82 l54 24 120 -19 c66
-10 145 -16 175 -14 217 18 267 27 355 61 16 7 15 4 -5 -12 -14 -12 -22 -24
-18 -28 4 -4 38 -1 76 5 67 12 273 10 365 -4 66 -11 277 -98 277 -115 0 -5
-41 -11 -91 -14 -95 -7 -132 -18 -109 -32 7 -4 39 -7 71 -6 91 3 356 -61 374
-89 3 -4 -17 -10 -43 -14 -69 -9 -214 -55 -207 -66 3 -5 45 -6 94 -3 48 3 104
3 123 -1 32 -6 134 -74 124 -83 -2 -2 -34 12 -72 32 -38 19 -80 35 -94 35 -21
0 -14 -7 35 -39 34 -21 75 -55 92 -77 35 -44 87 -143 79 -151 -10 -10 -27 10
-56 67 -50 99 -62 90 -34 -27 10 -38 17 -114 18 -173 1 -152 -11 -175 -205
-370 -154 -155 -284 -298 -276 -306 2 -2 30 1 61 7 32 6 61 7 64 4 11 -11 -65
-72 -223 -178 -162 -108 -316 -250 -349 -320 -23 -51 -12 -60 22 -17 14 19 40
48 57 64 40 39 186 146 198 146 6 0 -26 -35 -70 -77 -98 -97 -146 -170 -182
-282 -45 -139 -62 -158 -75 -86 -4 19 -11 35 -15 35 -9 0 -41 -72 -41 -91 0
-19 -51 -119 -61 -119 -5 0 -8 12 -7 26 5 43 -16 38 -39 -9 -22 -45 -132 -186
-145 -187 -16 0 -7 37 17 72 26 38 31 58 16 58 -15 0 -184 -182 -256 -275 -38
-49 -103 -132 -144 -183 -56 -71 -71 -96 -61 -102 16 -10 45 3 57 24 4 8 29
37 56 64 26 28 47 53 47 57 0 3 27 38 60 77 32 39 71 89 87 112 50 76 83 88
83 31 0 -19 3 -35 8 -35 22 1 52 14 52 24 0 6 18 34 40 61 21 28 47 60 57 73
10 12 28 24 40 27 32 6 91 53 99 78 10 35 35 57 62 57 28 0 72 35 72 57 0 22
59 195 82 241 11 23 25 42 30 42 4 0 8 6 8 13 0 6 16 25 35 42 19 16 35 35 35
42 0 7 9 17 20 23 11 6 20 15 20 21 0 29 217 262 267 285 17 9 40 28 49 42 10
15 26 36 37 47 27 28 59 99 46 104 -6 2 -16 -2 -22 -8 -16 -16 -47 -14 -47 3
0 8 9 21 20 29 25 17 224 211 268 260 67 76 103 167 107 275 2 79 7 91 29 73
8 -7 20 -9 27 -5 16 9 4 139 -16 167 -22 31 -18 39 14 32 69 -15 36 66 -54
130 -36 26 -65 51 -65 55 0 5 9 12 20 15 28 9 25 19 -20 64 -40 39 -121 83
-177 95 -17 4 -45 26 -69 54 -31 36 -66 60 -148 100 -116 58 -160 68 -325 76
-57 3 -106 8 -110 11 -3 4 11 21 32 38 35 30 48 57 28 57 -5 0 -31 -10 -58
-21 -64 -28 -266 -97 -319 -109 -67 -15 -234 -24 -234 -13 0 11 73 63 88 63 4
0 17 7 27 15 172 131 256 199 274 219 9 11 27 31 41 46 14 14 30 33 35 42 6 8
22 33 36 54 14 21 34 55 45 74 10 19 26 44 36 55 25 30 83 197 99 285 28 156
31 243 15 451 -8 100 -75 277 -158 416 -38 65 -79 128 -90 140 l-20 22 58 4
c152 9 254 7 254 -5z m-1386 -212 c178 -53 326 -138 460 -266 169 -161 224
-267 266 -510 34 -197 12 -381 -65 -544 -74 -156 -175 -254 -350 -341 -147
-74 -220 -89 -420 -89 -159 0 -175 2 -255 28 -128 42 -217 87 -305 153 -137
102 -239 224 -301 359 -15 33 -33 70 -40 84 -51 102 -81 400 -54 546 41 221
155 374 369 494 171 95 276 121 476 115 104 -2 148 -9 219 -29z m-1083 -83
l56 -25 -10 -40 c-8 -32 -6 -52 7 -94 l17 -53 -29 -58 c-41 -80 -79 -205 -87
-285 -4 -38 -11 -68 -15 -68 -4 0 -29 12 -56 27 -72 41 -147 39 -236 -5 -76
-37 -118 -90 -138 -173 -62 -257 252 -437 442 -252 20 19 40 33 46 29 5 -3 15
-27 22 -53 25 -99 129 -276 218 -375 30 -33 32 -38 14 -38 -44 0 -222 54 -336
101 -257 107 -420 164 -531 185 -49 9 -95 18 -101 20 -25 6 -85 125 -110 220
-24 88 -26 111 -21 204 8 135 43 272 103 397 100 208 285 330 554 363 82 10
121 5 191 -27z m1919 -2498 c0 -9 -11 -37 -24 -63 -13 -26 -56 -144 -96 -262
-76 -226 -125 -335 -184 -413 -20 -26 -36 -50 -36 -53 0 -19 -213 -304 -321
-429 -207 -239 -448 -433 -621 -497 -64 -23 -101 -31 -159 -32 -71 -1 -77 1
-116 32 -97 77 -140 269 -130 586 6 193 14 254 53 381 32 106 45 125 92 125
20 0 64 5 97 10 39 6 63 6 69 0 6 -6 18 -10 28 -10 17 0 18 -13 18 -167 1
-192 15 -276 54 -328 28 -36 45 -41 126 -36 80 6 192 96 320 257 111 140 170
228 319 478 93 156 113 179 197 227 83 48 267 179 279 200 10 15 35 10 35 -6z
m-550 -375 c0 -6 -13 -25 -30 -43 -24 -27 -73 -95 -125 -176 -23 -35 -67 -99
-105 -151 -22 -30 -58 -85 -80 -121 -43 -73 -170 -199 -231 -230 -74 -37 -128
-13 -148 65 -13 54 -15 356 -2 356 6 0 11 16 13 36 l3 37 110 28 c195 49 482
151 534 191 26 20 61 24 61 8z m-1637 -120 c16 -16 33 -30 39 -30 6 0 25 -13
43 -29 36 -31 131 -71 170 -71 13 0 27 -5 30 -10 4 -6 -5 -57 -19 -113 -38
-151 -46 -214 -53 -409 -6 -180 -14 -210 -40 -150 -33 75 -53 140 -53 168 0
38 -9 49 -25 27 -36 -48 -62 31 -67 201 -3 104 -17 132 -39 82 -7 -14 -19 -26
-27 -26 -12 0 -13 11 -8 60 5 42 4 60 -4 60 -45 0 -55 113 -19 211 12 33 27
59 33 59 6 0 24 -13 39 -30z m4208 -267 c27 -14 49 -32 49 -40 0 -7 6 -16 14
-19 24 -9 57 -92 63 -158 13 -144 -69 -303 -265 -508 -152 -161 -297 -345
-381 -483 -58 -96 -130 -248 -137 -287 l-5 -33 24 40 c14 22 49 80 78 128 88
144 224 310 393 482 182 183 259 281 320 406 42 86 44 88 50 58 3 -17 6 -55 7
-83 0 -28 4 -60 9 -71 15 -37 32 33 38 153 2 61 5 112 7 112 1 0 41 -15 89
-34 144 -57 186 -101 186 -196 l0 -51 -199 -205 c-374 -382 -701 -767 -878
-1029 -152 -225 -297 -513 -352 -700 -7 -22 -16 -49 -21 -60 -17 -41 -21 -63
-35 -175 -8 -63 -22 -162 -30 -220 -36 -245 -46 -350 -43 -428 2 -45 0 -82 -4
-82 -15 0 -100 63 -137 103 -153 163 -236 287 -336 505 -101 220 -156 398
-200 650 -54 309 -110 506 -162 563 -45 50 -66 56 -103 29 -37 -26 -78 -100
-56 -100 7 0 19 7 27 16 18 22 69 46 84 40 39 -14 77 -154 106 -379 l21 -171
-68 -59 c-195 -170 -548 -552 -598 -647 -7 -14 -54 -89 -103 -168 -50 -78
-114 -194 -144 -257 -30 -63 -57 -115 -60 -115 -11 0 -89 245 -89 279 0 17 -4
31 -9 31 -21 0 -88 364 -116 630 -19 182 -35 436 -35 560 0 75 4 101 19 126
10 17 22 55 25 85 l7 54 -38 -41 c-21 -23 -62 -88 -92 -145 -178 -343 -489
-738 -741 -940 -56 -46 -226 -161 -268 -183 -38 -20 -88 -21 -95 -2 -7 17 7
82 21 99 18 22 130 250 151 307 80 215 106 338 131 604 25 269 32 309 81 469
56 182 49 173 112 137 63 -35 154 -60 222 -60 73 0 200 25 278 54 85 33 94 32
170 -3 72 -33 115 -75 150 -146 30 -61 61 -196 53 -230 -3 -13 -2 -26 3 -29 5
-3 12 -27 16 -53 24 -162 247 -917 264 -897 20 22 56 141 121 398 82 322 153
546 209 655 116 228 130 244 291 340 108 64 289 188 465 319 145 107 150 108
105 7 -37 -82 -36 -109 2 -113 47 -5 123 44 184 120 47 58 59 68 87 68 75 0
216 122 274 237 17 35 54 82 91 117 35 33 79 86 99 119 27 45 39 57 52 51 9
-4 30 -9 47 -11 43 -6 95 46 114 112 10 34 31 68 72 113 32 35 58 68 58 73 0
5 20 9 45 9 85 0 135 49 135 133 0 56 11 59 81 20z"/>
<path d="M4902 3279 c-56 -38 -76 -59 -54 -59 17 0 101 60 112 79 6 12 9 21 7
21 -2 0 -32 -19 -65 -41z"/>
<path d="M4764 3062 c-39 -31 -80 -62 -90 -68 -34 -21 -6 -27 40 -9 59 23 169
138 129 134 -5 0 -40 -26 -79 -57z"/>
<path d="M4715 2910 c-27 -23 -79 -57 -114 -77 -69 -39 -67 -53 3 -33 52 14
130 73 158 118 26 43 14 40 -47 -8z"/>
<path d="M4050 6301 c-124 -38 -199 -134 -208 -267 -4 -61 -1 -80 20 -125 29
-64 75 -111 137 -142 36 -17 63 -22 126 -22 96 1 142 21 203 90 69 79 88 169
56 275 -22 75 -109 162 -184 184 -57 17 -109 19 -150 7z"/>
</g>
</svg>
